<?xml version="1.0" encoding="UTF-8" standalone="no"?>
<!DOCTYPE svg PUBLIC "-//W3C//DTD SVG 1.1//EN" "http://www.w3.org/Graphics/SVG/1.1/DTD/svg11.dtd">
<!-- Created with Vectornator (http://vectornator.io/) -->
<svg height="100%" stroke-miterlimit="10" style="fill-rule:nonzero;clip-rule:evenodd;stroke-linecap:round;stroke-linejoin:round;" version="1.1" viewBox="0 0 367.46 61.1746" width="100%" xml:space="preserve" xmlns="http://www.w3.org/2000/svg" xmlns:xlink="http://www.w3.org/1999/xlink">
<defs/>
<clipPath id="ArtboardFrame">
<rect height="61.1746" width="367.46" x="0" y="0"/>
</clipPath>
<g clip-path="url(#ArtboardFrame)" id="Untitled">
<g opacity="1">
<path d="M210.875 3.10035L247.108 3.10035L247.108 11.7056L220.662 11.7056L220.662 23.9251L246.372 23.9251L246.372 32.2378L220.662 32.2378L220.662 44.6638L247.108 44.6638L247.108 53.2691L210.875 53.2691L210.875 3.10035ZM347.174 54.1727C358.283 54.1727 364.542 49.0095 364.542 41.9188C364.542 36.8675 360.836 33.0983 353.079 31.4633L344.878 29.8369C340.117 28.9764 338.619 28.1159 338.619 26.3948C338.619 24.1661 340.915 22.7978 345.144 22.7978C349.728 22.7978 353.123 23.994 354.01 28.1073L363.62 28.1073C363.097 20.3625 357.361 15.251 345.729 15.251C335.676 15.251 328.619 19.2783 328.619 27.0833C328.619 32.4788 332.502 35.9897 340.88 37.7022L350.047 39.7588C353.664 40.4472 354.63 41.3938 354.63 42.8481C354.63 45.1629 351.9 46.6172 347.485 46.6172C341.935 46.6172 338.761 45.4211 337.529 41.3078L327.865 41.3078C329.275 49.0353 335.179 54.1727 347.174 54.1727ZM325.072 53.2347L314.673 53.2347C308.148 53.2347 304.531 49.2935 304.531 44.3196L304.531 24.6135L297.217 24.6135L297.217 16.2148L304.566 16.2148L304.566 5.67333L314.23 5.67333L314.23 16.2148L325.072 16.2148L325.072 24.6135L314.23 24.6135L314.23 41.9188C314.23 43.8894 315.639 44.8359 317.847 44.8359L325.072 44.8359L325.072 53.2347ZM283.404 16.232L283.404 19.5708C280.002 16.7792 275.687 15.254 271.232 15.2682C263.971 15.1199 257.196 18.7948 253.521 24.8743C249.846 30.9538 249.846 38.4871 253.521 44.5666C257.196 50.6461 263.971 54.3209 271.232 54.1727C275.687 54.1914 280.004 52.6657 283.404 49.87L283.404 53.2175L293.041 53.2175L293.041 16.2148L283.404 16.232ZM272.029 46.0493C267.302 46.1016 263.009 43.3771 261.163 39.152C259.317 34.9268 260.283 30.038 263.609 26.7755C266.934 23.513 271.96 22.5231 276.333 24.2695C280.705 26.0158 283.558 30.1526 283.555 34.742C283.583 37.7297 282.379 40.6044 280.211 42.7252C278.042 44.846 275.09 46.0368 272.012 46.0321L272.029 46.0493Z" fill="#05c167" fill-rule="nonzero" opacity="1" stroke="none"/>
<path d="M189.367 23.1592C184.517 23.1592 181.077 26.8423 181.077 32.496L181.077 53.2347L173.674 53.2347L173.674 16.7311L180.989 16.7311L180.989 21.1886C182.826 18.18 186.199 16.3748 189.801 16.4729L192.461 16.4729L192.461 23.1592L189.367 23.1592ZM168.559 34.9829C168.559 24.0972 160.58 15.9566 149.782 15.9566C144.629 15.9906 139.702 18.0179 136.094 21.5894C132.486 25.1608 130.495 29.9814 130.561 34.9829C130.561 45.86 139.205 54.0866 150.482 54.0866C156.875 54.2038 162.926 51.2957 166.706 46.2902L161.334 42.4695C158.832 45.8588 154.777 47.8426 150.482 47.7789C144.254 47.7504 138.981 43.3121 138.07 37.3321L168.577 37.3321L168.559 34.9829ZM138.23 31.6354C139.551 26.0678 144.134 22.2987 149.693 22.2987C155.252 22.2987 159.826 26.0678 161.068 31.6354L138.23 31.6354ZM107.111 15.9566C102.115 15.9607 97.3266 17.9033 93.8131 21.3521L93.8131 3.10035L86.4103 3.10035L86.4103 53.2347L93.7244 53.2347L93.7244 48.6051C97.2677 52.0843 102.089 54.0559 107.129 54.0866C114.246 54.2334 120.888 50.6321 124.491 44.673C128.093 38.7139 128.093 31.3294 124.491 25.3703C120.888 19.4112 114.246 15.8099 107.129 15.9566L107.111 15.9566ZM106.58 47.6671C101.302 47.6915 96.5317 44.6224 94.499 39.8954C92.4662 35.1684 93.5732 29.718 97.3022 26.0935C101.031 22.4691 106.645 21.3871 111.518 23.3537C116.391 25.3203 119.559 29.9467 119.541 35.069C119.546 38.4054 118.181 41.6063 115.749 43.964C113.317 46.3216 110.017 47.6418 106.58 47.6327L106.58 47.6671ZM59.1486 47.3229C66.2942 47.3229 71.8441 42.0048 71.8441 34.0363L71.8441 3.10035L79.5129 3.10035L79.5129 53.2347L71.9328 53.2347L71.9328 48.4932C68.354 52.0832 63.4173 54.0951 58.2709 54.0608C47.2509 54.0608 38.7665 46.2644 38.7665 34.4408L38.7665 3.10035L46.5771 3.10035L46.5771 34.0793C46.5771 42.0909 51.8965 47.3229 59.1486 47.3229Z" fill="#000000" fill-rule="nonzero" opacity="1" stroke="none"/>
<path d="M21.2322 60.5799C32.4545 59.4207 36.3948 52.1021 35.4892 43.3346L30.961-0.502585L23.8594 0.230983L28.3785 43.9805C29.0125 50.1178 26.6659 53.9932 20.0026 54.6814C15.7066 55.1252 12.1876 54.514 9.56356 53.9876L10.1341 59.511C13.3476 60.5969 16.4977 61.069 21.2322 60.5799Z" fill="#420b75" fill-rule="nonzero" opacity="1" stroke="none"/>
</g>
</g>
</svg>
